<svg xmlns="http://www.w3.org/2000/svg" xmlns:svg="http://www.w3.org/2000/svg" id="svg4460" width="24" height="24" version="1.1"><metadata id="metadata4465"/><g id="layer1" transform="translate(0,-1028.3622)"><path style="opacity:.5;color:#000;fill:none;stroke:#000;stroke-width:2;stroke-linecap:round;stroke-linejoin:round;stroke-miterlimit:4;stroke-opacity:1;stroke-dasharray:none;stroke-dashoffset:0;marker:none;visibility:visible;display:inline;overflow:visible;enable-background:accumulate" id="path15016" d="m 12.5,1031.3622 -5.5,5 3,0 -4,4 3,0 -3,4 5,0 0,3 0,0.5 0,0.5 c 0,0.554 0.446,1 1,1 l 1,0 c 0.554,0 1,-0.446 1,-1 l 0,-0.5 0,-0.5 0,-3 5,0 -3,-4 3,0 -4,-4 3,0 -5.5,-5 z"/><path id="rect4152" d="m 12.5,1031.3622 -5.5,5 3,0 -4,4 3,0 -3,4 5,0 0,3 0,0.5 0,0.5 c 0,0.554 0.446,1 1,1 l 1,0 c 0.554,0 1,-0.446 1,-1 l 0,-0.5 0,-0.5 0,-3 5,0 -3,-4 3,0 -1,-1 -3,-3 3,0 z" style="color:#000;fill:#fff;fill-opacity:1;fill-rule:nonzero;stroke:none;stroke-width:2;marker:none;visibility:visible;display:inline;overflow:visible;enable-background:accumulate"/></g></svg>