<svg xmlns="http://www.w3.org/2000/svg" xmlns:svg="http://www.w3.org/2000/svg" id="svg4764" width="12" height="12" version="1.1"><metadata id="metadata4769"/><g id="layer1" transform="translate(0,-1040.3622)"><path id="path5036" d="m 6.5,1041.3622 -3,3 1.71875,0 -2.21875,2 2,0 -2,2 3,0 0,2 1,0 0,-2 3,0 -2,-2 2,0 -2.21875,-2 1.71875,0 z" style="opacity:.5;color:#000;fill:#000;stroke:#000;stroke-width:2;stroke-linecap:round;stroke-linejoin:round;stroke-miterlimit:4;stroke-opacity:1;stroke-dasharray:none;stroke-dashoffset:0;marker:none;visibility:visible;display:inline;overflow:visible;enable-background:accumulate;fill-opacity:1"/><path style="color:#000;fill:#fff;fill-opacity:1;fill-rule:nonzero;stroke:none;stroke-width:2;marker:none;visibility:visible;display:inline;overflow:visible;enable-background:accumulate" id="rect4152-9-6-1" d="m 6.5,1041.3622 -3,3 1.71875,0 -2.21875,2 2,0 -2,2 3,0 0,2 1,0 0,-2 3,0 -2,-2 2,0 -2.21875,-2 1.71875,0 z"/></g></svg>