<svg xmlns="http://www.w3.org/2000/svg" xmlns:svg="http://www.w3.org/2000/svg" id="svg4619" width="18" height="18" version="1.1"><metadata id="metadata4624"/><g id="layer1" transform="translate(0,-1034.3622)"><path id="path14334" d="m 9.5,1036.3622 -4,4 2.5,0 -3,3 2.5,0 -2.5,3 4,0 0,3 1,0 0,-3 4,0 -2.5,-3 2.5,0 -3,-3 2.5,0 z" style="opacity:.5;color:#000;fill:none;stroke:#000;stroke-width:2;stroke-linecap:round;stroke-linejoin:round;stroke-miterlimit:4;stroke-opacity:1;stroke-dasharray:none;stroke-dashoffset:0;marker:none;visibility:visible;display:inline;overflow:visible;enable-background:accumulate"/><path style="color:#000;fill:#fff;fill-opacity:1;fill-rule:nonzero;stroke:none;stroke-width:2;marker:none;visibility:visible;display:inline;overflow:visible;enable-background:accumulate" id="rect4152-3-3-5" d="m 9.5,1036.3622 -4,4 2.5,0 -3,3 2.5,0 -2.5,3 4,0 0,3 1,0 0,-3 4,0 -2.5,-3 2.5,0 -3,-3 2.5,0 z"/></g></svg>