<svg xmlns="http://www.w3.org/2000/svg" xmlns:svg="http://www.w3.org/2000/svg" id="svg4460" width="24" height="24" version="1.1"><metadata id="metadata4465"/><g id="layer1" transform="translate(0,-1028.3622)"><path id="path11371" d="m 12.5,1032.3622 c -0.5,-10e-5 -0.726094,0.2394 -0.875,0.5 l -8.5,14 c -0.0881,0.1543 -0.125,0.3274 -0.125,0.5 0,0.75 0.5,1.0002 1,1 l 17,0 c 0.5,2e-4 1,-0.25 1,-1 0,-0.1726 -0.03685,-0.3457 -0.125,-0.5 l -8.5,-14 c -0.148906,-0.2606 -0.375,-0.5001 -0.875,-0.5 z" style="font-size:medium;font-style:normal;font-variant:normal;font-weight:400;font-stretch:normal;text-indent:0;text-align:start;text-decoration:none;line-height:normal;letter-spacing:normal;word-spacing:normal;text-transform:none;direction:ltr;block-progression:tb;writing-mode:lr-tb;text-anchor:start;baseline-shift:baseline;opacity:.5;color:#000;fill:#000;fill-opacity:1;fill-rule:nonzero;stroke:#000;stroke-width:2;marker:none;visibility:visible;display:inline;overflow:visible;enable-background:accumulate;font-family:Sans;-inkscape-font-specification:Sans;stroke-opacity:1"/><path style="font-size:medium;font-style:normal;font-variant:normal;font-weight:400;font-stretch:normal;text-indent:0;text-align:start;text-decoration:none;line-height:normal;letter-spacing:normal;word-spacing:normal;text-transform:none;direction:ltr;block-progression:tb;writing-mode:lr-tb;text-anchor:start;baseline-shift:baseline;color:#000;fill:#fff;fill-opacity:1;fill-rule:nonzero;stroke:none;stroke-width:2;marker:none;visibility:visible;display:inline;overflow:visible;enable-background:accumulate;font-family:Sans;-inkscape-font-specification:Sans" id="path11349" d="m 12.5,1032.3622 c -0.5,-10e-5 -0.726094,0.2394 -0.875,0.5 l -8.5,14 c -0.0881,0.1543 -0.125,0.3274 -0.125,0.5 0,0.75 0.5,1.0002 1,1 l 17,0 c 0.5,2e-4 1,-0.25 1,-1 0,-0.1726 -0.03685,-0.3457 -0.125,-0.5 l -8.5,-14 c -0.148906,-0.2606 -0.375,-0.5001 -0.875,-0.5 z"/></g></svg>