<svg xmlns="http://www.w3.org/2000/svg" xmlns:svg="http://www.w3.org/2000/svg" id="svg4619" width="18" height="18" version="1.1"><metadata id="metadata4624"/><g id="layer1" transform="translate(0,-1034.3622)"><path style="font-size:medium;font-style:normal;font-variant:normal;font-weight:400;font-stretch:normal;text-indent:0;text-align:start;text-decoration:none;line-height:normal;letter-spacing:normal;word-spacing:normal;text-transform:none;direction:ltr;block-progression:tb;writing-mode:lr-tb;text-anchor:start;baseline-shift:baseline;opacity:.5;color:#000;fill:#fff;fill-opacity:1;fill-rule:nonzero;stroke:#000;stroke-width:2;stroke-linecap:butt;stroke-linejoin:miter;stroke-miterlimit:4;stroke-opacity:1;stroke-dasharray:none;stroke-dashoffset:0;marker:none;visibility:visible;display:inline;overflow:visible;enable-background:accumulate;font-family:Sans;-inkscape-font-specification:Sans" id="path21112" d="m 9.50002,1037.3622 c -0.36111,0 -0.52441,0.1729 -0.63195,0.361 L 3.0903,1048.2789 C 3.0267,1048.3901 3,1048.5153 3,1048.64 c 0,0.5417 0.36111,0.7224 0.72222,0.7222 l 11.55556,0 c 0.36111,2e-4 0.72222,-0.1805 0.72222,-0.7222 0,-0.1243 -0.0267,-0.2496 -0.0903,-0.3611 l -5.77778,-10.5557 c -0.10761,-0.1881 -0.27083,-0.361 -0.63194,-0.361 z"/><path id="path21090-9" d="m 9.50002,1037.3622 c -0.36111,0 -0.52441,0.1729 -0.63195,0.361 L 3.0903,1048.2789 C 3.0267,1048.3901 3,1048.5153 3,1048.64 c 0,0.5417 0.36111,0.7224 0.72222,0.7222 l 11.55556,0 c 0.36111,2e-4 0.72222,-0.1805 0.72222,-0.7222 0,-0.1243 -0.0267,-0.2496 -0.0903,-0.3611 l -5.77778,-10.5557 c -0.10761,-0.1881 -0.27083,-0.361 -0.63194,-0.361 z" style="font-size:medium;font-style:normal;font-variant:normal;font-weight:400;font-stretch:normal;text-indent:0;text-align:start;text-decoration:none;line-height:normal;letter-spacing:normal;word-spacing:normal;text-transform:none;direction:ltr;block-progression:tb;writing-mode:lr-tb;text-anchor:start;baseline-shift:baseline;color:#000;fill:#fff;fill-opacity:1;fill-rule:nonzero;stroke:none;stroke-width:2;marker:none;visibility:visible;display:inline;overflow:visible;enable-background:accumulate;font-family:Sans;-inkscape-font-specification:Sans"/></g></svg>