<svg xmlns="http://www.w3.org/2000/svg" xmlns:svg="http://www.w3.org/2000/svg" id="svg4619" width="18" height="18" version="1.1"><metadata id="metadata4624"/><g id="layer1" transform="translate(0,-1034.3622)"><g style="display:inline" id="airport-18" transform="translate(-108,-16)"><g id="g21737"><path id="path14268" d="m 124.5,1060.3622 0,1 -5.5,-1 0,3 2,1.2222 0,0.7778 -6,0 0,-0.7778 2,-1.2222 0,-3 -5.5,1 0,-1 5.5,-3 c 0,0 0,-1.7036 0,-3 0,-0.7777 0.22222,-2 1,-2 0.77777,0 1,1.2223 1,2 0,1.2964 0,3 0,3 z" style="opacity:.75;color:#000;fill:none;stroke:#000;stroke-width:2;stroke-linecap:round;stroke-linejoin:round;stroke-miterlimit:4;stroke-opacity:1;stroke-dasharray:none;stroke-dashoffset:0;marker:none;visibility:visible;display:inline;overflow:visible;enable-background:accumulate"/><path style="fill:#fff;fill-opacity:1;stroke:none;display:inline" id="path7712-0" d="m 124.5,1060.3622 0,1 -5.5,-1 0,3 2,1.2222 0,0.7778 -6,0 0,-0.7778 2,-1.2222 0,-3 -5.5,1 0,-1 5.5,-3 c 0,0 0,-1.7036 0,-3 0,-0.7777 0.22222,-2 1,-2 0.77777,0 1,1.2223 1,2 0,1.2964 0,3 0,3 z"/></g></g></g></svg>